<?xml version="1.0" encoding="UTF-8"?>
<svg width="1200pt" height="1200pt" version="1.1" viewBox="0 0 1200 1200" xmlns="http://www.w3.org/2000/svg">
 <g fill-rule="evenodd" fill="#fff" stroke-width=".0762">
  <path transform="matrix(154.53 0 0 154.53 37.428 6.8626e-14)" d="m3.7742 3.9267c0 0.5002-0.40548 0.90568-0.90568 0.90568-0.50023 0-0.90571-0.40548-0.90571-0.90568s0.40548-0.90571 0.90571-0.90571c0.5002 0 0.90568 0.40551 0.90568 0.90571"/>
  <path transform="matrix(154.53 0 0 154.53 37.428 6.8626e-14)" d="m2.34 7.7273 2.4686-0.004095c-0.15399-1.2993 0.39499-8.9953 0.17791-7.5082-0.34851 2.3867-0.5434 3.4024-1.1415 4.7599-1.0123 0.2179-1.3888 0.3073-2.2401 1.1694l0.73511 1.583z"/>
  <path transform="matrix(154.53 0 0 154.53 37.428 6.8626e-14)" d="m0.8832 4.435c0-0.34939 0.28329-0.63271 0.63281-0.63271 0.095298 0 0.18559 0.021006 0.26661 0.058897-0.011198 0.056901-0.017088 0.1157-0.017088 0.17591 0 0.27399 0.12169 0.51969 0.314 0.68579-0.1048 0.2046-0.31769 0.34499-0.5635 0.34499-0.34949 0-0.63281-0.28339-0.63281-0.63291z"/>
  <path transform="matrix(154.53 0 0 154.53 37.428 6.8626e-14)" d="m1.7642 6.9766-1.566-0.002705c0.10751-0.90781-0.27591-6.2847-0.12429-5.2457 0.2435 1.6675 0.3796 2.3771 0.7975 3.3256 0.5226 0.11241 0.8028 0.17601 1.1533 0.44441-0.20081 0.14411-0.41441 0.334-0.67121 0.59401l0.41069 0.8844z"/>
  <path transform="matrix(154.53 0 0 154.53 37.428 6.8626e-14)" d="m6.3133 4.3102c0-0.368-0.29831-0.6663-0.6663-0.6663-0.24401 0-0.4573 0.13119-0.57341 0.3269-0.009403 0.21001-0.018705 0.4201-0.0273 0.6279 0.10761 0.22351 0.3361 0.3778 0.60071 0.3778 0.368 0 0.6663-0.29831 0.6663-0.6663z"/>
  <path transform="matrix(154.53 0 0 154.53 37.428 6.8626e-14)" d="m5.2582 7.1062 1.8161-0.003008c-0.1133-0.95581 0.2906-6.6176 0.13089-5.5235-0.25629 1.7557-0.3998 2.503-0.83981 3.5017-0.61999 0.13339-0.916 0.20149-1.359 0.5864-0.009808 0.3025-0.017189 0.5886-0.021587 0.84969z"/>
 </g>
</svg>
